<svg xmlns="http://www.w3.org/2000/svg" version="1.1" viewBox="103.49 39.75 305.03 432.77">
<path d="M0 0 C0.72383176 -0.00170885 1.44766353 -0.0034177 2.19342959 -0.00517833 C4.60713353 -0.0084599 7.02055649 0.00250828 9.43423462 0.01345825 C11.16908766 0.01402265 12.90394118 0.01370524 14.63879395 0.01257324 C19.34081001 0.01199986 24.04272384 0.02375182 28.74471617 0.03772116 C33.66145019 0.05023095 38.5781866 0.05139921 43.49493408 0.05377197 C52.80207305 0.059986 62.10916498 0.0763958 71.41628325 0.09647095 C82.01355395 0.11883232 92.61082691 0.12982399 103.20811534 0.13986182 C125.00438056 0.16076208 146.80060345 0.19593659 168.59683228 0.24050903 C168.60491913 0.91321335 168.61300598 1.58591766 168.62133789 2.27900696 C168.70798995 9.33690988 168.80751324 16.3945513 168.91421509 23.45217896 C168.9522886 26.07941261 168.98717746 28.70669456 169.01870728 31.33401489 C169.06483088 35.12984376 169.12274387 38.92534624 169.18276978 42.72097778 C169.20009659 44.45773018 169.20009659 44.45773018 169.21777344 46.22956848 C169.52524004 63.56340708 172.16892107 77.46572344 184.47573853 90.18191528 C197.34904062 102.22300391 212.92599121 103.3186714 229.72573853 103.55691528 C231.57110451 103.58808693 231.57110451 103.58808693 233.45375061 103.61988831 C237.35555833 103.68489234 241.25742917 103.74403881 245.15933228 103.80300903 C247.81624816 103.84576456 250.47313978 103.88985677 253.1300354 103.93386841 C259.61890237 104.04052289 266.10783112 104.14237751 272.59683228 104.24050903 C272.68841671 142.7980712 272.75888568 181.35561695 272.80109359 219.91326591 C272.80609633 224.46684582 272.81127363 229.02042553 272.81655884 233.57400513 C272.81760808 234.48052891 272.81865732 235.3870527 272.81973836 236.3210469 C272.83713671 250.99333964 272.86867126 265.66556959 272.90544346 280.3378251 C272.94286874 295.39641472 272.96507149 310.4549715 272.97318625 325.51360571 C272.97867073 334.80326731 272.99598395 344.09275143 273.02849814 353.38235839 C273.04966562 359.75529584 273.05602727 366.12814174 273.05083779 372.50111179 C273.04827947 376.17630591 273.05216099 379.85119021 273.07365417 383.52632904 C273.0968199 387.5167367 273.08876138 391.50648837 273.07785034 395.49694824 C273.08950171 396.65066811 273.10115307 397.80438798 273.11315751 398.99306905 C273.04297473 408.5003198 270.91213196 416.62955685 264.29995728 423.70925903 C256.44355377 430.77281448 248.54041829 432.54081483 238.22384644 432.50793457 C236.65865599 432.51473124 236.65865599 432.51473124 235.06184554 432.52166522 C231.56597577 432.53432366 228.07026149 432.53268788 224.57437134 432.53103638 C222.06757405 432.53702074 219.56077861 432.54382608 217.0539856 432.5513916 C210.95135041 432.56723258 204.84877216 432.57350044 198.74611834 432.57461636 C193.78352674 432.57556767 188.82094786 432.57968214 183.85836029 432.58601761 C169.77805208 432.60362639 155.69777433 432.61285715 141.61745504 432.61135666 C140.85880382 432.61127675 140.10015261 432.61119684 139.31851196 432.6111145 C138.17914006 432.61099186 138.17914006 432.61099186 137.01675054 432.61086674 C124.71156864 432.61005415 112.40650922 432.62918602 100.10136274 432.65739124 C87.45627701 432.68614611 74.81125097 432.69993007 62.16613173 432.69820368 C55.07100103 432.69754063 47.97599871 432.70299532 40.88089752 432.72455978 C34.20614225 432.74471713 27.53170262 432.74407134 20.85691833 432.72952652 C18.41002252 432.7274364 15.96310979 432.73215136 13.51624298 432.74424744 C10.16976226 432.75971643 6.82421378 432.75037974 3.47775269 432.73498535 C2.51489105 432.74527248 1.55202942 432.7555596 0.55999017 432.76615846 C-8.36850994 432.67571314 -16.26615608 430.11316613 -22.87191772 423.94363403 C-28.75821006 417.39663542 -31.64969465 410.36853808 -31.66043663 401.53308487 C-31.6639427 400.88082227 -31.66744878 400.22855968 -31.6710611 399.55653155 C-31.68035562 397.37365144 -31.67545691 395.19103926 -31.67059326 393.00814819 C-31.67433051 391.42617124 -31.67893233 389.84419614 -31.68432391 388.26222396 C-31.69656016 383.91686066 -31.6962927 379.57157432 -31.69393516 375.22619772 C-31.69352715 370.53893948 -31.70456465 365.85170596 -31.71405029 361.16445923 C-31.73066488 351.98170894 -31.73616005 342.79898433 -31.73727505 333.61622027 C-31.73822534 326.15172318 -31.74233469 318.68723458 -31.7486763 311.22274017 C-31.76629024 290.05923049 -31.77551497 268.89574109 -31.77401535 247.73222402 C-31.77393544 246.59123737 -31.77385553 245.45025072 -31.77377319 244.27468872 C-31.77369143 243.13230876 -31.77360967 241.9899288 -31.77352543 240.81293127 C-31.77271257 222.29990163 -31.79184996 203.78695337 -31.82004993 185.27394727 C-31.84877738 166.26463462 -31.86259029 147.25536166 -31.86086237 128.24602675 C-31.86019841 117.57386702 -31.86569358 106.90179258 -31.88721848 96.2296524 C-31.90542846 87.14281167 -31.90977911 78.05609488 -31.89619963 68.96924379 C-31.88966898 64.33406655 -31.88955628 59.69912711 -31.90690613 55.06397247 C-31.92263766 50.81743924 -31.91977247 46.57133236 -31.90233786 42.32480952 C-31.89926813 40.79184476 -31.90289938 39.25884817 -31.91405801 37.72592095 C-31.98912652 26.67812515 -30.93458582 17.15356781 -23.10629272 8.77175903 C-16.2902845 2.64360485 -9.1707598 -0.0130824 0 0 Z M113.59683228 165.24050903 C112.00159863 167.94139634 112.00159863 167.94139634 110.60073853 170.99050903 C110.04901978 172.14156128 109.49730103 173.29261353 108.92886353 174.47854614 C108.33874463 175.73240432 107.74890859 176.98639564 107.15933228 178.24050903 C106.53752326 179.54751038 105.91511744 180.85422794 105.29214478 182.16067505 C99.5222998 194.28900574 93.87939175 206.47730988 88.24868774 218.67068481 C85.40049161 224.82592038 82.52964 230.97056153 79.65933228 237.11550903 C79.08159659 238.35272413 78.50387847 239.58994742 77.92617798 240.82717896 C77.05297442 242.69724408 76.17974545 244.56729729 75.30641174 246.43730164 C73.0814146 251.20173808 70.8583648 255.96708081 68.63589478 260.73269653 C67.66592798 262.81231329 66.6959419 264.89192105 65.72595215 266.9715271 C65.10194391 268.30949945 64.47802116 269.64751166 63.85418701 270.98556519 C62.9913073 272.83628756 62.12806318 274.68684002 61.26480103 276.53738403 C60.77262085 277.59280396 60.28044067 278.64822388 59.77334595 279.73562622 C59.06435439 281.2451206 58.34265294 282.7488677 57.59683228 284.24050903 C57.23810583 288.11475469 57.02972498 290.38984809 59.22183228 293.67800903 C62.31368458 295.71212239 63.96050653 295.84656332 67.59683228 295.24050903 C71.14633096 292.30966221 72.88193191 289.08692222 74.83901978 284.96316528 C75.27530197 284.05237465 75.27530197 284.05237465 75.72039795 283.1231842 C76.64551535 281.18680518 77.55874065 279.24508281 78.47183228 277.30300903 C79.07654207 276.03376695 79.68200502 274.76488342 80.28823853 273.49636841 C84.12647774 265.4421176 87.85769306 257.34197734 91.59683228 249.24050903 C112.71683228 248.91050903 133.83683228 248.58050903 155.59683228 248.24050903 C156.25683228 250.22050903 156.91683228 252.20050903 157.59683228 254.24050903 C158.1620331 255.49249362 158.75896375 256.73099647 159.3968811 257.94754028 C159.74096512 258.60842651 160.08504913 259.26931274 160.43955994 259.95022583 C160.80728012 260.64414429 161.17500031 261.33806274 161.55386353 262.05300903 C161.93870407 262.78495483 162.32354462 263.51690063 162.720047 264.27102661 C163.53218083 265.81189687 164.34670447 267.35150967 165.16348267 268.8899231 C166.40317872 271.22889891 167.63023987 273.57420583 168.8565979 275.92019653 C169.65075842 277.42320323 170.4456563 278.9258206 171.24136353 280.42800903 C171.60301102 281.12192749 171.96465851 281.81584595 172.33726501 282.53079224 C176.29299692 289.986142 176.29299692 289.986142 182.59683228 295.30300903 C185.58082471 295.20975927 187.22609702 293.98736659 189.59683228 292.24050903 C191.88526442 289.45884132 191.88526442 289.45884132 191.44107056 286.49295044 C190.47011768 282.75233902 188.92939529 279.56888548 187.08901978 276.20144653 C186.73187393 275.53173828 186.37472809 274.86203003 186.00675964 274.17202759 C184.8364475 271.98212805 183.65422965 269.79890332 182.47183228 267.61550903 C181.64821053 266.07963494 180.82538475 264.54333377 180.00332642 263.00662231 C177.92944817 259.13399462 175.84628255 255.2664513 173.7605896 251.400177 C172.05535051 248.23564247 170.35863777 245.06657327 168.66323853 241.89675903 C166.239437 237.36634323 163.81195779 232.83793182 161.38198853 228.31082153 C157.58797065 221.23411433 153.82455311 214.14134417 150.0630188 207.04733276 C147.93050692 203.02767073 145.79367982 199.01030234 143.65618896 194.99328613 C141.98335522 191.84931412 140.31225382 188.70445899 138.64614868 185.55691528 C136.86715327 182.19701118 135.0763934 178.84346417 133.28433228 175.49050903 C132.76338989 174.50276489 132.24244751 173.51502075 131.70571899 172.49734497 C131.21990356 171.59274536 130.73408813 170.68814575 130.23355103 169.75613403 C129.61032959 168.58485962 129.61032959 168.58485962 128.97451782 167.3899231 C127.41595951 164.95831803 125.78109197 163.12922798 123.59683228 161.24050903 C118.53751499 160.39728949 116.84133366 161.46324555 113.59683228 165.24050903 Z " fill="#000000" transform="translate(135.40316772460938,39.759490966796875)"/>
<path d="M0 0 C5.3424061 4.46218486 10.31653199 9.17355392 15.23022461 14.10083008 C16.41681671 15.2847937 16.41681671 15.2847937 17.62738037 16.49267578 C20.22154325 19.08246393 22.81206298 21.67586069 25.40234375 24.26953125 C27.20823289 26.0747465 29.01427044 27.87981331 30.82044983 29.68473816 C34.59359767 33.45641532 38.36498729 37.22983843 42.13500977 41.00463867 C46.49748924 45.37258272 50.86359143 49.73688078 55.23154634 54.09934884 C59.4385746 58.30130365 63.64280171 62.50605234 67.8458271 66.71201134 C69.63416597 68.5010193 71.4232535 70.2892792 73.21308708 72.07679176 C75.7029901 74.56417207 78.18969378 77.05470601 80.67553711 79.54614258 C81.42194962 80.29053085 82.16836212 81.03491913 82.93739319 81.80186462 C83.60882355 82.47611481 84.28025391 83.15036499 84.97203064 83.845047 C85.56026076 84.43365415 86.14849089 85.0222613 86.75454617 85.62870502 C88 87 88 87 88 88 C79.82820197 88.09310726 71.65662942 88.16396947 63.48443031 88.20724869 C59.6888097 88.22803153 55.89355476 88.25617593 52.09814453 88.30175781 C48.42820063 88.34555183 44.75860612 88.36920687 41.08842087 88.37950897 C39.69550459 88.38684076 38.30260517 88.40115646 36.90983963 88.42292023 C25.97646342 88.58681191 16.77306699 87.40067105 8.53125 79.703125 C2.69854169 73.21572494 -0.26170232 66.21068815 -0.22705078 57.44384766 C-0.22689972 56.16297272 -0.22674866 54.88209778 -0.22659302 53.56240845 C-0.21638209 52.17962485 -0.20595014 50.79684288 -0.1953125 49.4140625 C-0.19157835 47.98774413 -0.18873328 46.56142318 -0.18673706 45.13510132 C-0.17913219 41.39667573 -0.15951109 37.65840767 -0.1373291 33.92004395 C-0.11680257 30.09906138 -0.10772084 26.27805316 -0.09765625 22.45703125 C-0.07626192 14.97128267 -0.0421644 7.48566348 0 0 Z " fill="#000000" transform="translate(320,40)"/>
<path d="M0 0 C2.86211709 2.50741939 4.32823727 5.25989223 6.0390625 8.63671875 C6.61575684 9.76480957 7.19245117 10.89290039 7.78662109 12.05517578 C8.08719421 12.64913147 8.38776733 13.24308716 8.69744873 13.8550415 C10.24956264 16.92137801 11.8194118 19.97857235 13.390625 23.03515625 C13.85443069 23.93829559 13.85443069 23.93829559 14.3276062 24.85968018 C17.24594941 30.52026551 20.3278448 36.0770379 23.51025391 41.5925293 C26 45.91508848 26 45.91508848 26 47 C10.49 47 -5.02 47 -21 47 C-20.25942545 43.29712727 -19.71344607 41.03783265 -18.15820312 37.79223633 C-17.78111206 36.99823929 -17.404021 36.20424225 -17.01550293 35.38618469 C-16.60819946 34.54331406 -16.200896 33.70044342 -15.78125 32.83203125 C-15.36331177 31.95600754 -14.94537354 31.07998383 -14.51477051 30.17741394 C-13.18176786 27.38656018 -11.84098431 24.59952602 -10.5 21.8125 C-9.59714511 19.92537467 -8.69479558 18.03800747 -7.79296875 16.15039062 C-1.61390493 3.22780987 -1.61390493 3.22780987 0 0 Z " fill="#000000" transform="translate(256,225)"/>
</svg>